<?xml version="1.0" encoding="UTF-8" standalone="no"?>
<!DOCTYPE svg PUBLIC "-//W3C//DTD SVG 1.1//EN" "http://www.w3.org/Graphics/SVG/1.1/DTD/svg11.dtd">
<svg width="100%" height="100%" viewBox="0 0 800 800" version="1.1" xmlns="http://www.w3.org/2000/svg" xmlns:xlink="http://www.w3.org/1999/xlink" xml:space="preserve" xmlns:serif="http://www.serif.com/" style="fill-rule:evenodd;clip-rule:evenodd;stroke-linejoin:round;stroke-miterlimit:2;">
    <path d="M128.971,699.211L704.971,123.211C714.337,113.845 714.337,98.636 704.971,89.27C695.604,79.903 680.396,79.903 671.029,89.27L95.029,665.269C85.663,674.636 85.663,689.844 95.029,699.211C104.396,708.577 119.604,708.577 128.971,699.211Z"/>
    <path d="M95.029,123.211L671.029,699.211C680.396,708.577 695.604,708.577 704.971,699.211C714.337,689.844 714.337,674.636 704.971,665.269L128.971,89.27C119.604,79.903 104.396,79.903 95.029,89.27C85.663,98.636 85.663,113.845 95.029,123.211Z"/>
</svg>
