<?xml version="1.0" encoding="UTF-8" standalone="no"?>
<!DOCTYPE svg PUBLIC "-//W3C//DTD SVG 1.1//EN" "http://www.w3.org/Graphics/SVG/1.1/DTD/svg11.dtd">
<svg width="100%" height="100%" viewBox="0 0 800 800" version="1.1" xmlns="http://www.w3.org/2000/svg" xmlns:xlink="http://www.w3.org/1999/xlink" xml:space="preserve" xmlns:serif="http://www.serif.com/" style="fill-rule:evenodd;clip-rule:evenodd;stroke-linejoin:round;stroke-miterlimit:2;">
    <g transform="matrix(0.968814,0,0,-0.968814,3.74067,787.297)">
        <path d="M719.481,-10.379C719.618,-10.384 719.755,-10.388 719.892,-10.391C748.659,-10.967 772.116,-2.035 790.527,15.858C790.596,15.925 790.663,15.992 790.731,16.059C811.971,37.3 821.006,62.022 819.915,89.577C819.914,89.593 819.913,89.609 819.913,89.625C818.424,125.063 798.516,169.72 765.629,218.344C694.077,324.136 561.235,452.105 452.061,548.645C447.129,553.006 440.366,554.661 433.977,553.069C427.589,551.478 422.393,546.844 420.083,540.678C410.631,515.442 395.222,487.698 371.303,457.777C371.298,457.771 368.372,454.479 368.372,454.479C337.734,423.912 303.788,402.792 268.145,392.716C261.529,390.846 256.338,385.709 254.398,379.114C252.458,372.518 254.042,365.388 258.592,360.234C346.645,260.49 477.484,122.539 586.708,47.099C636.861,12.459 683.198,-8.906 719.481,-10.379ZM720.894,29.597C679.127,31.401 623.364,66.467 563.144,114.659C475.477,184.818 380.421,284.065 308.206,364.64C339.552,378.207 369.534,399.035 397.08,426.618C397.354,426.892 397.62,427.174 397.877,427.464L401.538,431.583C401.764,431.837 401.983,432.097 402.196,432.362C421.358,456.272 435.629,479.003 446.145,500.356C533.159,422.347 631.584,327.138 699.546,240.79C745.65,182.212 778.223,128.668 779.947,87.974C780.588,71.656 775.108,57.068 762.578,44.475C751.728,33.984 737.765,29.303 720.914,29.597L720.894,29.597Z" style="fill:rgb(255,76,123);"/>
    </g>
    <g transform="matrix(1,0,0,-1,0,799.768)">
        <path d="M163.442,434.375C220.836,410.346 285.463,428.013 340.889,482.799L342.72,484.813C391.326,545.823 405.011,601.112 383.5,649.078C329.813,768.719 74.878,786.065 45.998,787.621L0,790.184L25.814,751.922C26.226,751.28 69.569,685.785 69.569,573.925C69.569,514.837 108.153,457.443 163.442,434.375Z" style="fill:rgb(255,76,123);"/>
    </g>
    <g transform="matrix(1.4219,0,0,1.4219,-94.493,21.8711)">
        <path d="M123.333,533.333L143.333,533.333C177.375,529.994 202.804,499.523 200,465.433C200.088,451.365 196.343,437.534 189.167,425.433L133.333,333.333L77.5,425.467C70.33,437.558 66.584,451.376 66.667,465.433C63.862,499.523 89.292,529.994 123.333,533.333Z" style="fill:rgb(255,76,123);fill-rule:nonzero;"/>
    </g>
</svg>
