<?xml version="1.0" encoding="UTF-8" standalone="no"?>
<!DOCTYPE svg PUBLIC "-//W3C//DTD SVG 1.1//EN" "http://www.w3.org/Graphics/SVG/1.1/DTD/svg11.dtd">
<svg width="100%" height="100%" viewBox="0 0 800 800" version="1.1" xmlns="http://www.w3.org/2000/svg" xmlns:xlink="http://www.w3.org/1999/xlink" xml:space="preserve" xmlns:serif="http://www.serif.com/" style="fill-rule:evenodd;clip-rule:evenodd;stroke-linejoin:round;stroke-miterlimit:2;">
    <g transform="matrix(1,0,0,1,-3360,-295960)">
        <g id="Page-1">
            <g id="Dribbble-Light-Preview">
                <g id="icons">
                    <path id="github---142-" serif:id="github-[#142]" d="M3760,295960C3980.92,295960 4160,296144 4160,296370C4160,296551 4045.52,296705 3886.68,296759C3866.4,296763 3859.2,296750 3859.2,296740C3859.2,296726 3859.68,296682 3859.68,296627C3859.68,296589 3846.88,296564 3832.52,296551C3921.6,296541 4015.2,296506 4015.2,296349C4015.2,296304 3999.68,296267 3974,296239C3978.16,296228 3991.88,296187 3970.08,296130C3970.08,296130 3936.56,296119 3860.2,296172C3828.24,296163 3794,296158 3760,296158C3726,296158 3691.8,296163 3659.88,296172C3583.44,296119 3549.84,296130 3549.84,296130C3528.12,296187 3541.84,296228 3545.96,296239C3520.4,296267 3504.76,296304 3504.76,296349C3504.76,296506 3598.16,296541 3687,296551C3675.56,296562 3665.2,296580 3661.6,296606C3638.8,296617 3580.88,296635 3545.2,296572C3545.2,296572 3524.04,296533 3483.88,296530C3483.88,296530 3444.88,296529 3481.16,296555C3481.16,296555 3507.36,296567 3525.56,296615C3525.56,296615 3549.04,296688 3660.32,296663C3660.52,296697 3660.88,296730 3660.88,296740C3660.88,296750 3653.52,296763 3633.56,296759C3474.6,296705 3360,296551 3360,296370C3360,296144 3539.12,295960 3760,295960" style="fill:rgb(255,76,123);"/>
                </g>
            </g>
        </g>
    </g>
</svg>
