<?xml version="1.0" encoding="UTF-8" standalone="no"?>
<!DOCTYPE svg PUBLIC "-//W3C//DTD SVG 1.1//EN" "http://www.w3.org/Graphics/SVG/1.1/DTD/svg11.dtd">
<svg width="100%" height="100%" viewBox="0 0 1080 1080" version="1.1" xmlns="http://www.w3.org/2000/svg" xmlns:xlink="http://www.w3.org/1999/xlink" xml:space="preserve" xmlns:serif="http://www.serif.com/" style="fill-rule:evenodd;clip-rule:evenodd;stroke-linejoin:round;stroke-miterlimit:2;">
    <g transform="matrix(1,0,0,1,0,-1500)">
        <g id="Artboard3" transform="matrix(1.0346,0,0,1.12999,-37.3714,64.2678)">
            <rect x="36.122" y="1270.57" width="1043.88" height="955.76" style="fill:none;"/>
            <clipPath id="_clip1">
                <rect x="36.122" y="1270.57" width="1043.88" height="955.76"/>
            </clipPath>
            <g clip-path="url(#_clip1)">
                <g id="Lines" transform="matrix(0.966554,0,0,0.884963,36.1215,1271.45)">
                    <g opacity="0.5">
                        <g transform="matrix(1.84214,0,-4.93038e-32,1.84214,-455.052,-454.758)">
                            <path d="M833.297,538.994L542.701,538.994L834.064,247.631C833.866,247.83 833.609,247.935 833.349,247.948L833.297,247.949C833.019,247.949 832.741,247.843 832.529,247.631C832.118,247.22 832.105,246.562 832.491,246.136L832.529,246.096L541.166,537.459C541.166,537.459 541.166,246.863 541.166,246.863C541.166,246.282 540.71,245.808 540.136,245.779L540.08,245.778C539.48,245.778 538.994,246.264 538.994,246.863L538.994,537.459L247.631,246.096C247.207,245.672 246.519,245.672 246.096,246.096C245.672,246.519 245.672,247.207 246.096,247.631L537.459,538.994L247.023,538.994C246.424,538.994 245.938,539.481 245.938,540.08C245.938,540.679 246.424,541.166 247.023,541.166L537.459,541.166L246.255,832.369C245.832,832.793 245.832,833.48 246.255,833.904C246.467,834.116 246.745,834.222 247.023,834.222L247.075,834.221C247.335,834.209 247.592,834.103 247.791,833.904L538.994,542.701L538.994,833.137L541.166,833.137L541.166,542.701L832.529,834.064L834.064,832.529C834.064,832.529 567.557,566.021 542.701,541.166C542.701,541.166 833.297,541.166 833.297,541.166L833.297,538.994Z" style="fill:url(#_Radial2);"/>
                        </g>
                        <g transform="matrix(1.30259,0.349029,-0.349029,1.30259,24.8673,-352.397)">
                            <path d="M539.781,124.368L539.709,124.385C539.07,124.549 538.597,125.13 538.597,125.821L538.597,536.499C508.205,506.108 214.413,212.315 214.413,212.315C213.834,211.737 212.894,211.737 212.315,212.315C211.737,212.894 211.737,213.834 212.315,214.413L536.499,538.597L125.623,538.597C124.805,538.597 124.14,539.261 124.14,540.08C124.14,540.899 124.805,541.563 125.623,541.563L536.499,541.563L211.981,866.081C211.402,866.66 211.402,867.599 211.981,868.179C212.361,868.559 212.896,868.689 213.383,868.571L213.452,868.552C213.682,868.484 213.898,868.36 214.079,868.179L538.597,543.66L538.597,954.937C538.597,955.756 539.261,956.42 540.08,956.42C540.208,956.42 540.332,956.404 540.451,956.373L540.521,956.353C541.125,956.166 541.563,955.602 541.563,954.937L541.563,543.66L866.219,868.316L868.316,866.219L543.66,541.563L954.739,541.563L954.739,538.597L543.66,538.597L868.16,214.097L866.063,212L541.563,536.499C541.563,536.499 541.563,125.821 541.563,125.821C541.563,125.002 540.899,124.338 540.08,124.338C539.978,124.338 539.878,124.348 539.781,124.368Z" style="fill:url(#_Radial3);"/>
                        </g>
                        <g transform="matrix(1.16787,0.674271,-0.674271,1.16787,273.269,-455.339)">
                            <path d="M538.597,78.073L538.597,536.499C509.971,507.873 248.228,246.13 248.228,246.13C247.649,245.551 246.709,245.551 246.13,246.13C245.551,246.709 245.551,247.649 246.13,248.228L536.499,538.597L77.827,538.597C77.008,538.597 76.344,539.261 76.344,540.08C76.344,540.899 77.008,541.563 77.827,541.563L536.499,541.563L245.815,832.248C245.235,832.827 245.235,833.766 245.815,834.345C246.303,834.834 247.048,834.91 247.617,834.574L247.679,834.535C247.762,834.481 247.84,834.418 247.912,834.345L538.597,543.66L538.597,1002.83L541.563,1002.83L541.563,543.66L832.404,834.501L834.501,832.404L543.66,541.563L1002.59,541.563L1002.59,538.597L543.66,538.597L834.345,247.912L832.248,245.815L541.563,536.499L541.563,78.073C541.563,78.584 541.304,79.036 540.909,79.302L540.849,79.341C540.625,79.477 540.362,79.556 540.08,79.556C539.261,79.556 538.597,78.892 538.597,78.073Z" style="fill:url(#_Radial4);"/>
                        </g>
                    </g>
                </g>
                <g id="Bottom" transform="matrix(0.598773,-0.548227,-0.902038,-0.825893,560.945,2344.26)">
                    <g transform="matrix(0.021685,1.0005,1.88614,1.15524e-16,-322.103,-199.189)">
                        <path d="M403.874,725.127C391.811,724.756 380.861,722.715 371.025,719.003C361.189,715.291 352.374,710.28 344.579,703.971C336.785,697.661 330.057,690.33 324.397,681.979C318.736,673.627 314.004,664.673 310.2,655.115C306.395,645.558 303.565,635.722 301.709,625.607C299.853,615.493 298.925,605.518 298.925,595.682L298.925,548.636C298.925,521.912 292.569,502.518 279.856,490.455C267.144,478.392 247.704,472.268 221.536,472.082L221.536,431.718C247.704,431.718 267.144,425.732 279.856,413.762C292.569,401.792 298.925,382.352 298.925,355.442L298.925,308.118C298.925,298.282 299.76,288.307 301.431,278.192C303.101,268.078 305.699,258.242 309.225,248.684C312.751,239.127 317.252,230.172 322.727,221.821C328.201,213.47 334.836,206.139 342.631,199.829C350.425,193.519 359.38,188.509 369.494,184.797C379.608,181.085 391.068,179.044 403.874,178.673L409.719,210.686C396.357,211.057 385.733,214.212 377.845,220.151C369.958,226.09 364.019,233.652 360.029,242.839C356.039,252.025 353.487,262.371 352.374,273.878C351.26,285.384 350.703,296.797 350.703,308.118L350.703,355.442C350.518,377.712 345.322,397.245 335.114,414.041C324.907,430.836 309.04,443.595 287.512,452.317C309.04,460.854 324.907,473.521 335.114,490.316C345.322,507.111 350.518,526.551 350.703,548.636L350.703,595.682C350.703,607.188 351.631,618.648 353.487,630.061C355.343,641.475 358.544,651.775 363.091,660.961C367.638,670.148 373.67,677.71 381.186,683.649C388.702,689.588 398.213,692.743 409.719,693.114L403.874,725.127Z" style="fill:rgb(174,254,208);fill-rule:nonzero;"/>
                    </g>
                    <g transform="matrix(0.021685,1.0005,1.88614,1.15524e-16,-322.103,-199.189)">
                        <path d="M411.289,725.424C410.897,727.574 407.334,729.197 403.282,729.073C389.819,728.658 377.597,726.382 366.619,722.24C356.105,718.272 346.652,712.931 338.321,706.186C330.238,699.644 323.248,692.046 317.379,683.387C311.611,674.876 306.785,665.751 302.908,656.012C299.048,646.315 296.176,636.336 294.293,626.074C292.414,615.831 291.475,605.729 291.475,595.767L291.475,548.722C291.475,522.884 285.625,504.103 273.334,492.44C261.985,481.671 244.636,476.2 221.275,476.034C217.265,476.006 214.086,474.296 214.086,472.168L214.086,431.803C214.086,430.74 214.893,429.713 216.325,428.953C217.758,428.194 219.694,427.765 221.698,427.765C244.879,427.765 262.122,422.484 273.384,411.88C285.662,400.319 291.475,381.517 291.475,355.528L291.475,308.204C291.475,298.254 292.319,288.164 294.008,277.932C295.702,267.675 298.338,257.7 301.914,248.007C305.512,238.254 310.108,229.117 315.695,220.596C321.392,211.905 328.313,204.28 336.425,197.714C344.808,190.928 354.468,185.554 365.345,181.563C376.611,177.429 389.366,175.14 403.628,174.726C407.558,174.613 410.911,176.136 411.29,178.207L417.136,210.221C417.334,211.306 416.674,212.397 415.312,213.233C413.95,214.069 412.008,214.575 409.948,214.633C399.026,214.936 390.352,217.525 383.905,222.38C376.517,227.943 371.025,235.041 367.288,243.646C363.387,252.628 360.903,262.745 359.815,273.995C358.708,285.433 358.154,296.779 358.154,308.032C358.154,308.032 358.154,355.357 358.154,355.357C358.154,355.362 358.154,355.368 358.154,355.374C357.965,378.104 352.619,398.037 342.201,415.179C332.644,430.905 318.275,443.235 299.27,452.232C318.285,461.062 332.655,473.307 342.21,489.03C352.625,506.167 357.965,525.999 358.154,548.533C358.154,548.539 358.154,548.544 358.154,548.55L358.154,595.596C358.154,606.989 359.073,618.336 360.91,629.637C362.727,640.808 365.85,650.89 370.3,659.881C374.61,668.588 380.275,675.768 387.4,681.398C393.478,686.2 401.027,688.869 410.332,689.169C412.32,689.233 414.159,689.718 415.438,690.515C416.717,691.312 417.328,692.355 417.135,693.41L411.289,725.424ZM397.209,720.715L401.636,696.471C391.187,695.131 382.248,691.65 374.972,685.9C367.064,679.652 360.666,671.707 355.882,662.042C351.238,652.66 347.959,642.142 346.064,630.486C344.19,618.96 343.253,607.387 343.253,595.767L343.253,548.731C343.07,527.099 338.017,508.054 328.018,491.602C318.332,475.664 303.396,463.602 282.968,455.501C281.117,454.767 280.041,453.608 280.061,452.369C280.082,451.13 281.196,449.956 283.071,449.196C303.459,440.935 318.361,428.809 328.028,412.902C338.023,396.455 343.07,377.326 343.253,355.518C343.253,355.518 343.253,308.204 343.253,308.204C343.253,296.816 343.813,285.335 344.933,273.76C346.071,261.998 348.691,251.422 352.77,242.031C357.013,232.263 363.398,224.237 371.785,217.922C379.502,212.112 389.442,208.562 401.593,207.26C401.593,207.26 397.166,183.017 397.166,183.017C388.578,183.762 380.734,185.429 373.642,188.031C364.291,191.463 356.043,196.111 348.836,201.945C341.358,207.998 335.01,215.035 329.758,223.046C324.395,231.227 319.99,240 316.536,249.362C313.06,258.785 310.499,268.481 308.853,278.453C307.202,288.45 306.376,298.31 306.376,308.032C306.376,308.032 306.376,355.357 306.376,355.357C306.376,383.187 299.476,403.265 286.329,415.645C273.427,427.793 254.324,434.425 228.987,435.51C228.987,435.51 228.987,468.324 228.987,468.324C254.36,469.529 273.493,476.242 286.379,488.47C299.513,500.933 306.376,520.94 306.376,548.55C306.376,548.55 306.376,595.596 306.376,595.596C306.376,605.307 307.293,615.155 309.125,625.14C310.954,635.107 313.742,644.8 317.491,654.219C321.223,663.594 325.862,672.379 331.415,680.571C336.866,688.614 343.331,695.678 350.838,701.755C358.095,707.63 366.273,712.31 375.431,715.766C382.11,718.286 389.369,719.937 397.209,720.715L397.209,720.715Z" style="fill:rgb(25,209,181);"/>
                    </g>
                </g>
                <g id="Top" transform="matrix(0.596259,-0.545926,0.950465,0.870232,-99.8664,1734.66)">
                    <g transform="matrix(0.021685,1.0005,1.88614,1.15524e-16,-322.103,-199.189)">
                        <path d="M403.874,725.127C391.811,724.756 380.861,722.715 371.025,719.003C361.189,715.291 352.374,710.28 344.579,703.971C336.785,697.661 330.057,690.33 324.397,681.979C318.736,673.627 314.004,664.673 310.2,655.115C306.395,645.558 303.565,635.722 301.709,625.607C299.853,615.493 298.925,605.518 298.925,595.682L298.925,548.636C298.925,521.912 292.569,502.518 279.856,490.455C267.144,478.392 247.704,472.268 221.536,472.082L221.536,431.718C247.704,431.718 267.144,425.732 279.856,413.762C292.569,401.792 298.925,382.352 298.925,355.442L298.925,308.118C298.925,298.282 299.76,288.307 301.431,278.192C303.101,268.078 305.699,258.242 309.225,248.684C312.751,239.127 317.252,230.172 322.727,221.821C328.201,213.47 334.836,206.139 342.631,199.829C350.425,193.519 359.38,188.509 369.494,184.797C379.608,181.085 391.068,179.044 403.874,178.673L409.719,210.686C396.357,211.057 385.733,214.212 377.845,220.151C369.958,226.09 364.019,233.652 360.029,242.839C356.039,252.025 353.487,262.371 352.374,273.878C351.26,285.384 350.703,296.797 350.703,308.118L350.703,355.442C350.518,377.712 345.322,397.245 335.114,414.041C324.907,430.836 309.04,443.595 287.512,452.317C309.04,460.854 324.907,473.521 335.114,490.316C345.322,507.111 350.518,526.551 350.703,548.636L350.703,595.682C350.703,607.188 351.631,618.648 353.487,630.061C355.343,641.475 358.544,651.775 363.091,660.961C367.638,670.148 373.67,677.71 381.186,683.649C388.702,689.588 398.213,692.743 409.719,693.114L403.874,725.127Z" style="fill:rgb(174,254,208);fill-rule:nonzero;"/>
                    </g>
                    <g transform="matrix(0.021685,1.0005,1.88614,1.15524e-16,-322.103,-199.189)">
                        <path d="M411.289,725.424C410.897,727.574 407.334,729.197 403.282,729.073C389.819,728.658 377.597,726.382 366.619,722.24C356.105,718.272 346.652,712.931 338.321,706.186C330.238,699.644 323.248,692.046 317.379,683.387C311.611,674.876 306.785,665.751 302.908,656.012C299.048,646.315 296.176,636.336 294.293,626.074C292.414,615.831 291.475,605.729 291.475,595.767L291.475,548.722C291.475,522.884 285.625,504.103 273.334,492.44C261.985,481.671 244.636,476.2 221.275,476.034C217.265,476.006 214.086,474.296 214.086,472.168L214.086,431.803C214.086,430.74 214.893,429.713 216.325,428.953C217.758,428.194 219.694,427.765 221.698,427.765C244.879,427.765 262.122,422.484 273.384,411.88C285.662,400.319 291.475,381.517 291.475,355.528L291.475,308.204C291.475,298.254 292.319,288.164 294.008,277.932C295.702,267.675 298.338,257.7 301.914,248.007C305.512,238.254 310.108,229.117 315.695,220.596C321.392,211.905 328.313,204.28 336.425,197.714C344.808,190.928 354.468,185.554 365.345,181.563C376.611,177.429 389.366,175.14 403.628,174.726C407.558,174.613 410.911,176.136 411.29,178.207L417.136,210.221C417.334,211.306 416.674,212.397 415.312,213.233C413.95,214.069 412.008,214.575 409.948,214.633C399.026,214.936 390.352,217.525 383.905,222.38C376.517,227.943 371.025,235.041 367.288,243.646C363.387,252.628 360.903,262.745 359.815,273.995C358.708,285.433 358.154,296.779 358.154,308.032C358.154,308.032 358.154,355.357 358.154,355.357C358.154,355.362 358.154,355.368 358.154,355.374C357.965,378.104 352.619,398.037 342.201,415.179C332.644,430.905 318.275,443.235 299.27,452.232C318.285,461.062 332.655,473.307 342.21,489.03C352.625,506.167 357.965,525.999 358.154,548.533C358.154,548.539 358.154,548.544 358.154,548.55L358.154,595.596C358.154,606.989 359.073,618.336 360.91,629.637C362.727,640.808 365.85,650.89 370.3,659.881C374.61,668.588 380.275,675.768 387.4,681.398C393.478,686.2 401.027,688.869 410.332,689.169C412.32,689.233 414.159,689.718 415.438,690.515C416.717,691.312 417.328,692.355 417.135,693.41L411.289,725.424ZM397.209,720.715L401.636,696.471C391.187,695.131 382.248,691.65 374.972,685.9C367.064,679.652 360.666,671.707 355.882,662.042C351.238,652.66 347.959,642.142 346.064,630.486C344.19,618.96 343.253,607.387 343.253,595.767L343.253,548.731C343.07,527.099 338.017,508.054 328.018,491.602C318.332,475.664 303.396,463.602 282.968,455.501C281.117,454.767 280.041,453.608 280.061,452.369C280.082,451.13 281.196,449.956 283.071,449.196C303.459,440.935 318.361,428.809 328.028,412.902C338.023,396.455 343.07,377.326 343.253,355.518C343.253,355.518 343.253,308.204 343.253,308.204C343.253,296.816 343.813,285.335 344.933,273.76C346.071,261.998 348.691,251.422 352.77,242.031C357.013,232.263 363.398,224.237 371.785,217.922C379.502,212.112 389.442,208.562 401.593,207.26C401.593,207.26 397.166,183.017 397.166,183.017C388.578,183.762 380.734,185.429 373.642,188.031C364.291,191.463 356.043,196.111 348.836,201.945C341.358,207.998 335.01,215.035 329.758,223.046C324.395,231.227 319.99,240 316.536,249.362C313.06,258.785 310.499,268.481 308.853,278.453C307.202,288.45 306.376,298.31 306.376,308.032C306.376,308.032 306.376,355.357 306.376,355.357C306.376,383.187 299.476,403.265 286.329,415.645C273.427,427.793 254.324,434.425 228.987,435.51C228.987,435.51 228.987,468.324 228.987,468.324C254.36,469.529 273.493,476.242 286.379,488.47C299.513,500.933 306.376,520.94 306.376,548.55C306.376,548.55 306.376,595.596 306.376,595.596C306.376,605.307 307.293,615.155 309.125,625.14C310.954,635.107 313.742,644.8 317.491,654.219C321.223,663.594 325.862,672.379 331.415,680.571C336.866,688.614 343.331,695.678 350.838,701.755C358.095,707.63 366.273,712.31 375.431,715.766C382.11,718.286 389.369,719.937 397.209,720.715L397.209,720.715Z" style="fill:rgb(25,209,181);"/>
                    </g>
                </g>
                <g transform="matrix(2.43058,0.558235,-0.235107,0.858135,192.539,1199.53)">
                    <g transform="matrix(0.163044,-0.0143703,0.00525322,0.400841,-109.656,-193.643)">
                        <path d="M2155.28,1708.63C2091.15,1859.43 1950.56,1931.36 1807.76,2001.95C1639.62,2085.07 1498.11,2154.18 1381.55,2210.65C1306.06,2247.22 1241.05,2278.49 1186.05,2304.84C1194.92,2173.66 1227.65,1986.24 1335.9,1794.71C1382.88,1711.57 1456.05,1585.47 1603.71,1488.64C1642.54,1463.17 1692.08,1431.33 1755.16,1411.46C1786.29,1401.65 1820.71,1394.76 1858.77,1392.99C1953.84,1388.57 2123.37,1413.67 2171.22,1526.9C2201.19,1597.8 2170.56,1672.71 2155.28,1708.63Z" style="fill:rgb(255,76,123);fill-rule:nonzero;"/>
                    </g>
                    <g transform="matrix(0.482173,0,0,1.25042,-36.4526,-218.272)">
                        <path d="M663.211,374.55C660.022,370.729 624.769,329.784 576.737,336.002C543.846,340.261 522.881,364.312 512.141,376.636C494.359,397.037 486.545,418.229 482.971,430.812C479.958,435.274 477.009,439.716 474.115,444.139C484.288,440.934 495.538,438.681 507.974,438.104C539.038,436.659 594.439,444.864 610.077,481.861C619.868,505.03 609.856,529.511 604.865,541.248C583.91,590.527 537.968,614.03 491.304,637.098C436.359,664.258 390.118,686.841 352.029,705.296C350.314,711.095 348.705,716.742 347.195,722.232C343.756,734.729 292.525,924.037 329.817,940.277C343.647,946.3 364.516,926.28 378.452,912.912C445.884,848.226 447.516,751.271 446.442,716.764C467.872,714.508 505.715,707.495 543.397,681.899C551.231,676.575 581.856,655.428 613.202,601.675C632.439,568.688 662.67,505.806 669.461,414.143C690.644,396.431 711.83,388.719 733.016,371.008C709.747,375.521 693.227,381.787 663.211,374.55ZM617.44,398.491C617.44,398.491 613.072,401.346 602.464,402.663C584.07,404.949 568.41,404.909 568.41,404.909C568.41,404.909 582.913,407.495 597.681,406.836C612.448,406.178 617.44,398.491 617.44,398.491ZM606.17,397.681C599.695,397.681 594.449,392.431 594.449,385.96C594.449,379.486 599.695,374.239 606.17,374.239C612.641,374.239 617.891,379.486 617.891,385.96C617.891,392.431 612.641,397.681 606.17,397.681ZM625.389,375.074C625.389,375.074 616.414,369.518 594.619,366.954C556.824,362.508 536.188,368.664 536.188,368.664C536.188,368.664 554.448,357.552 584.79,358.835C615.132,360.117 625.389,375.074 625.389,375.074Z" style="fill:rgb(255,76,123);"/>
                    </g>
                </g>
            </g>
        </g>
    </g>
    <defs>
        <radialGradient id="_Radial2" cx="0" cy="0" r="1" gradientUnits="userSpaceOnUse" gradientTransform="matrix(293.488,0,7.85503e-30,293.488,539.808,539.457)"><stop offset="0" style="stop-color:rgb(0,255,216);stop-opacity:1"/><stop offset="0.7" style="stop-color:rgb(0,220,186);stop-opacity:0.65"/><stop offset="1" style="stop-color:rgb(0,153,130);stop-opacity:0"/></radialGradient>
        <radialGradient id="_Radial3" cx="0" cy="0" r="1" gradientUnits="userSpaceOnUse" gradientTransform="matrix(387.252,-103.764,103.764,387.252,539.594,539.742)"><stop offset="0" style="stop-color:rgb(0,255,216);stop-opacity:1"/><stop offset="0.7" style="stop-color:rgb(0,220,186);stop-opacity:0.65"/><stop offset="1" style="stop-color:rgb(0,153,130);stop-opacity:0"/></radialGradient>
        <radialGradient id="_Radial4" cx="0" cy="0" r="1" gradientUnits="userSpaceOnUse" gradientTransform="matrix(347.2,-200.456,200.456,347.2,539.549,539.902)"><stop offset="0" style="stop-color:rgb(0,255,216);stop-opacity:1"/><stop offset="0.7" style="stop-color:rgb(0,220,186);stop-opacity:0.65"/><stop offset="1" style="stop-color:rgb(0,153,130);stop-opacity:0"/></radialGradient>
    </defs>
</svg>
