<?xml version="1.0" encoding="UTF-8" standalone="no"?>
<!DOCTYPE svg PUBLIC "-//W3C//DTD SVG 1.1//EN" "http://www.w3.org/Graphics/SVG/1.1/DTD/svg11.dtd">
<svg width="100%" height="100%" viewBox="0 0 800 800" version="1.1" xmlns="http://www.w3.org/2000/svg" xmlns:xlink="http://www.w3.org/1999/xlink" xml:space="preserve" xmlns:serif="http://www.serif.com/" style="fill-rule:evenodd;clip-rule:evenodd;stroke-linejoin:round;stroke-miterlimit:2;">
    <g transform="matrix(1,0,0,1,-14560,-292760)">
        <g id="Page-1">
            <g id="Dribbble-Light-Preview">
                <g id="icons">
                    <path id="javascript---155-" serif:id="javascript-[#155]" d="M15173.1,293497C15103.3,293497 15058.2,293464 15036.2,293420L15097.4,293385C15113.5,293411 15134.4,293431 15171.5,293431C15202.6,293431 15222.5,293415 15222.5,293394C15222.5,293361 15179.4,293349 15149,293336C15094.7,293313 15058.7,293284 15058.7,293222C15058.7,293166 15101.7,293123 15168.8,293123C15216.6,293123 15251,293140 15275.7,293183L15217.2,293221C15204.3,293198 15190.3,293189 15168.8,293189C15146.8,293189 15132.8,293202 15132.8,293221C15132.8,293243 15146.8,293252 15179,293266C15246.6,293295 15297.7,293318 15297.7,293393C15297.7,293460 15244.6,293497 15173.1,293497ZM15000,293384C15000,293462 14952,293503 14885.4,293503C14825.3,293503 14789.2,293480 14771.5,293440L14770.5,293440L14831.6,293397C14843.4,293418 14854.1,293433 14879.8,293433C14904.6,293433 14920,293420 14920,293383L14920,293120L15000,293120L15000,293384ZM14560,293560L15360,293560L15360,292760L14560,292760L14560,293560Z" style="fill:rgb(255,76,123);"/>
                </g>
            </g>
        </g>
    </g>
</svg>
