<?xml version="1.0" encoding="UTF-8" standalone="no"?>
<!DOCTYPE svg PUBLIC "-//W3C//DTD SVG 1.1//EN" "http://www.w3.org/Graphics/SVG/1.1/DTD/svg11.dtd">
<svg width="100%" height="100%" viewBox="0 0 2800 1080" version="1.1" xmlns="http://www.w3.org/2000/svg" xmlns:xlink="http://www.w3.org/1999/xlink" xml:space="preserve" xmlns:serif="http://www.serif.com/" style="fill-rule:evenodd;clip-rule:evenodd;stroke-linejoin:round;stroke-miterlimit:2;">
    <g id="Artboard1" transform="matrix(2.59259,0,0,0.999727,0,5.68279e-14)">
        <rect x="0" y="-0" width="1080" height="1080.3" style="fill:none;"/>
        <clipPath id="_clip1">
            <rect x="0" y="-0" width="1080" height="1080.3"/>
        </clipPath>
        <g clip-path="url(#_clip1)">
            <g id="Lines" transform="matrix(0.385714,0,0,1.00027,0,1.00027)">
                <g opacity="0.5">
                    <g transform="matrix(1.84214,0,-4.93038e-32,1.84214,-455.052,-454.758)">
                        <path d="M833.297,538.994L542.701,538.994L834.064,247.631C833.866,247.83 833.609,247.935 833.349,247.948L833.297,247.949C833.019,247.949 832.741,247.843 832.529,247.631C832.118,247.22 832.105,246.562 832.491,246.136L832.529,246.096L541.166,537.459C541.166,537.459 541.166,246.863 541.166,246.863C541.166,246.282 540.71,245.808 540.136,245.779L540.08,245.778C539.48,245.778 538.994,246.264 538.994,246.863L538.994,537.459L247.631,246.096C247.207,245.672 246.519,245.672 246.096,246.096C245.672,246.519 245.672,247.207 246.096,247.631L537.459,538.994L247.023,538.994C246.424,538.994 245.938,539.481 245.938,540.08C245.938,540.679 246.424,541.166 247.023,541.166L537.459,541.166L246.255,832.369C245.832,832.793 245.832,833.48 246.255,833.904C246.467,834.116 246.745,834.222 247.023,834.222L247.075,834.221C247.335,834.209 247.592,834.103 247.791,833.904L538.994,542.701L538.994,833.137L541.166,833.137L541.166,542.701L832.529,834.064L834.064,832.529C834.064,832.529 567.557,566.021 542.701,541.166C542.701,541.166 833.297,541.166 833.297,541.166L833.297,538.994Z" style="fill:url(#_Radial2);"/>
                    </g>
                    <g transform="matrix(1.30259,0.349029,-0.349029,1.30259,24.8673,-352.397)">
                        <path d="M539.781,124.368L539.709,124.385C539.07,124.549 538.597,125.13 538.597,125.821L538.597,536.499C508.205,506.108 214.413,212.315 214.413,212.315C213.834,211.737 212.894,211.737 212.315,212.315C211.737,212.894 211.737,213.834 212.315,214.413L536.499,538.597L125.623,538.597C124.805,538.597 124.14,539.261 124.14,540.08C124.14,540.899 124.805,541.563 125.623,541.563L536.499,541.563L211.981,866.081C211.402,866.66 211.402,867.599 211.981,868.179C212.361,868.559 212.896,868.689 213.383,868.571L213.452,868.552C213.682,868.484 213.898,868.36 214.079,868.179L538.597,543.66L538.597,954.937C538.597,955.756 539.261,956.42 540.08,956.42C540.208,956.42 540.332,956.404 540.451,956.373L540.521,956.353C541.125,956.166 541.563,955.602 541.563,954.937L541.563,543.66L866.219,868.316L868.316,866.219L543.66,541.563L954.739,541.563L954.739,538.597L543.66,538.597L868.16,214.097L866.063,212L541.563,536.499C541.563,536.499 541.563,125.821 541.563,125.821C541.563,125.002 540.899,124.338 540.08,124.338C539.978,124.338 539.878,124.348 539.781,124.368Z" style="fill:url(#_Radial3);"/>
                    </g>
                    <g transform="matrix(1.16787,0.674271,-0.674271,1.16787,273.269,-455.339)">
                        <path d="M538.597,78.073L538.597,536.499C509.971,507.873 248.228,246.13 248.228,246.13C247.649,245.551 246.709,245.551 246.13,246.13C245.551,246.709 245.551,247.649 246.13,248.228L536.499,538.597L77.827,538.597C77.008,538.597 76.344,539.261 76.344,540.08C76.344,540.899 77.008,541.563 77.827,541.563L536.499,541.563L245.815,832.248C245.235,832.827 245.235,833.766 245.815,834.345C246.303,834.834 247.048,834.91 247.617,834.574L247.679,834.535C247.762,834.481 247.84,834.418 247.912,834.345L538.597,543.66L538.597,1002.83L541.563,1002.83L541.563,543.66L832.404,834.501L834.501,832.404L543.66,541.563L1002.59,541.563L1002.59,538.597L543.66,538.597L834.345,247.912L832.248,245.815L541.563,536.499L541.563,78.073C541.563,78.584 541.304,79.036 540.909,79.302L540.849,79.341C540.625,79.477 540.362,79.556 540.08,79.556C539.261,79.556 538.597,78.892 538.597,78.073Z" style="fill:url(#_Radial4);"/>
                    </g>
                </g>
            </g>
            <g id="Bottom" transform="matrix(0.238947,-0.619661,-0.359968,-0.933506,209.437,1213.59)">
                <g transform="matrix(0.021685,1.0005,1.88614,1.15524e-16,-322.103,-199.189)">
                    <path d="M403.874,725.127C391.811,724.756 380.861,722.715 371.025,719.003C361.189,715.291 352.374,710.28 344.579,703.971C336.785,697.661 330.057,690.33 324.397,681.979C318.736,673.627 314.004,664.673 310.2,655.115C306.395,645.558 303.565,635.722 301.709,625.607C299.853,615.493 298.925,605.518 298.925,595.682L298.925,548.636C298.925,521.912 292.569,502.518 279.856,490.455C267.144,478.392 247.704,472.268 221.536,472.082L221.536,431.718C247.704,431.718 267.144,425.732 279.856,413.762C292.569,401.792 298.925,382.352 298.925,355.442L298.925,308.118C298.925,298.282 299.76,288.307 301.431,278.192C303.101,268.078 305.699,258.242 309.225,248.684C312.751,239.127 317.252,230.172 322.727,221.821C328.201,213.47 334.836,206.139 342.631,199.829C350.425,193.519 359.38,188.509 369.494,184.797C379.608,181.085 391.068,179.044 403.874,178.673L409.719,210.686C396.357,211.057 385.733,214.212 377.845,220.151C369.958,226.09 364.019,233.652 360.029,242.839C356.039,252.025 353.487,262.371 352.374,273.878C351.26,285.384 350.703,296.797 350.703,308.118L350.703,355.442C350.518,377.712 345.322,397.245 335.114,414.041C324.907,430.836 309.04,443.595 287.512,452.317C309.04,460.854 324.907,473.521 335.114,490.316C345.322,507.111 350.518,526.551 350.703,548.636L350.703,595.682C350.703,607.188 351.631,618.648 353.487,630.061C355.343,641.475 358.544,651.775 363.091,660.961C367.638,670.148 373.67,677.71 381.186,683.649C388.702,689.588 398.213,692.743 409.719,693.114L403.874,725.127Z" style="fill:rgb(174,254,208);fill-rule:nonzero;"/>
                </g>
                <g transform="matrix(0.021685,1.0005,1.88614,1.15524e-16,-322.103,-199.189)">
                    <path d="M411.289,725.424C410.897,727.574 407.334,729.197 403.282,729.073C389.819,728.658 377.597,726.382 366.619,722.24C356.105,718.272 346.652,712.931 338.321,706.186C330.238,699.644 323.248,692.046 317.379,683.387C311.611,674.876 306.785,665.751 302.908,656.012C299.048,646.315 296.176,636.336 294.293,626.074C292.414,615.831 291.475,605.729 291.475,595.767L291.475,548.722C291.475,522.884 285.625,504.103 273.334,492.44C261.985,481.671 244.636,476.2 221.275,476.034C217.265,476.006 214.086,474.296 214.086,472.168L214.086,431.803C214.086,430.74 214.893,429.713 216.325,428.953C217.758,428.194 219.694,427.765 221.698,427.765C244.879,427.765 262.122,422.484 273.384,411.88C285.662,400.319 291.475,381.517 291.475,355.528L291.475,308.204C291.475,298.254 292.319,288.164 294.008,277.932C295.702,267.675 298.338,257.7 301.914,248.007C305.512,238.254 310.108,229.117 315.695,220.596C321.392,211.905 328.313,204.28 336.425,197.714C344.808,190.928 354.468,185.554 365.345,181.563C376.611,177.429 389.366,175.14 403.628,174.726C407.558,174.613 410.911,176.136 411.29,178.207L417.136,210.221C417.334,211.306 416.674,212.397 415.312,213.233C413.95,214.069 412.008,214.575 409.948,214.633C399.026,214.936 390.352,217.525 383.905,222.38C376.517,227.943 371.025,235.041 367.288,243.646C363.387,252.628 360.903,262.745 359.815,273.995C358.708,285.433 358.154,296.779 358.154,308.032C358.154,308.032 358.154,355.357 358.154,355.357C358.154,355.362 358.154,355.368 358.154,355.374C357.965,378.104 352.619,398.037 342.201,415.179C332.644,430.905 318.275,443.235 299.27,452.232C318.285,461.062 332.655,473.307 342.21,489.03C352.625,506.167 357.965,525.999 358.154,548.533C358.154,548.539 358.154,548.544 358.154,548.55L358.154,595.596C358.154,606.989 359.073,618.336 360.91,629.637C362.727,640.808 365.85,650.89 370.3,659.881C374.61,668.588 380.275,675.768 387.4,681.398C393.478,686.2 401.027,688.869 410.332,689.169C412.32,689.233 414.159,689.718 415.438,690.515C416.717,691.312 417.328,692.355 417.135,693.41L411.289,725.424ZM397.209,720.715L401.636,696.471C391.187,695.131 382.248,691.65 374.972,685.9C367.064,679.652 360.666,671.707 355.882,662.042C351.238,652.66 347.959,642.142 346.064,630.486C344.19,618.96 343.253,607.387 343.253,595.767L343.253,548.731C343.07,527.099 338.017,508.054 328.018,491.602C318.332,475.664 303.396,463.602 282.968,455.501C281.117,454.767 280.041,453.608 280.061,452.369C280.082,451.13 281.196,449.956 283.071,449.196C303.459,440.935 318.361,428.809 328.028,412.902C338.023,396.455 343.07,377.326 343.253,355.518C343.253,355.518 343.253,308.204 343.253,308.204C343.253,296.816 343.813,285.335 344.933,273.76C346.071,261.998 348.691,251.422 352.77,242.031C357.013,232.263 363.398,224.237 371.785,217.922C379.502,212.112 389.442,208.562 401.593,207.26C401.593,207.26 397.166,183.017 397.166,183.017C388.578,183.762 380.734,185.429 373.642,188.031C364.291,191.463 356.043,196.111 348.836,201.945C341.358,207.998 335.01,215.035 329.758,223.046C324.395,231.227 319.99,240 316.536,249.362C313.06,258.785 310.499,268.481 308.853,278.453C307.202,288.45 306.376,298.31 306.376,308.032C306.376,308.032 306.376,355.357 306.376,355.357C306.376,383.187 299.476,403.265 286.329,415.645C273.427,427.793 254.324,434.425 228.987,435.51C228.987,435.51 228.987,468.324 228.987,468.324C254.36,469.529 273.493,476.242 286.379,488.47C299.513,500.933 306.376,520.94 306.376,548.55C306.376,548.55 306.376,595.596 306.376,595.596C306.376,605.307 307.293,615.155 309.125,625.14C310.954,635.107 313.742,644.8 317.491,654.219C321.223,663.594 325.862,672.379 331.415,680.571C336.866,688.614 343.331,695.678 350.838,701.755C358.095,707.63 366.273,712.31 375.431,715.766C382.11,718.286 389.369,719.937 397.209,720.715L397.209,720.715Z" style="fill:rgb(25,209,181);"/>
                </g>
            </g>
            <g id="Top" transform="matrix(0.237944,-0.61706,0.379294,0.983623,-54.2675,524.562)">
                <g transform="matrix(0.021685,1.0005,1.88614,1.15524e-16,-322.103,-199.189)">
                    <path d="M403.874,725.127C391.811,724.756 380.861,722.715 371.025,719.003C361.189,715.291 352.374,710.28 344.579,703.971C336.785,697.661 330.057,690.33 324.397,681.979C318.736,673.627 314.004,664.673 310.2,655.115C306.395,645.558 303.565,635.722 301.709,625.607C299.853,615.493 298.925,605.518 298.925,595.682L298.925,548.636C298.925,521.912 292.569,502.518 279.856,490.455C267.144,478.392 247.704,472.268 221.536,472.082L221.536,431.718C247.704,431.718 267.144,425.732 279.856,413.762C292.569,401.792 298.925,382.352 298.925,355.442L298.925,308.118C298.925,298.282 299.76,288.307 301.431,278.192C303.101,268.078 305.699,258.242 309.225,248.684C312.751,239.127 317.252,230.172 322.727,221.821C328.201,213.47 334.836,206.139 342.631,199.829C350.425,193.519 359.38,188.509 369.494,184.797C379.608,181.085 391.068,179.044 403.874,178.673L409.719,210.686C396.357,211.057 385.733,214.212 377.845,220.151C369.958,226.09 364.019,233.652 360.029,242.839C356.039,252.025 353.487,262.371 352.374,273.878C351.26,285.384 350.703,296.797 350.703,308.118L350.703,355.442C350.518,377.712 345.322,397.245 335.114,414.041C324.907,430.836 309.04,443.595 287.512,452.317C309.04,460.854 324.907,473.521 335.114,490.316C345.322,507.111 350.518,526.551 350.703,548.636L350.703,595.682C350.703,607.188 351.631,618.648 353.487,630.061C355.343,641.475 358.544,651.775 363.091,660.961C367.638,670.148 373.67,677.71 381.186,683.649C388.702,689.588 398.213,692.743 409.719,693.114L403.874,725.127Z" style="fill:rgb(174,254,208);fill-rule:nonzero;"/>
                </g>
                <g transform="matrix(0.021685,1.0005,1.88614,1.15524e-16,-322.103,-199.189)">
                    <path d="M411.289,725.424C410.897,727.574 407.334,729.197 403.282,729.073C389.819,728.658 377.597,726.382 366.619,722.24C356.105,718.272 346.652,712.931 338.321,706.186C330.238,699.644 323.248,692.046 317.379,683.387C311.611,674.876 306.785,665.751 302.908,656.012C299.048,646.315 296.176,636.336 294.293,626.074C292.414,615.831 291.475,605.729 291.475,595.767L291.475,548.722C291.475,522.884 285.625,504.103 273.334,492.44C261.985,481.671 244.636,476.2 221.275,476.034C217.265,476.006 214.086,474.296 214.086,472.168L214.086,431.803C214.086,430.74 214.893,429.713 216.325,428.953C217.758,428.194 219.694,427.765 221.698,427.765C244.879,427.765 262.122,422.484 273.384,411.88C285.662,400.319 291.475,381.517 291.475,355.528L291.475,308.204C291.475,298.254 292.319,288.164 294.008,277.932C295.702,267.675 298.338,257.7 301.914,248.007C305.512,238.254 310.108,229.117 315.695,220.596C321.392,211.905 328.313,204.28 336.425,197.714C344.808,190.928 354.468,185.554 365.345,181.563C376.611,177.429 389.366,175.14 403.628,174.726C407.558,174.613 410.911,176.136 411.29,178.207L417.136,210.221C417.334,211.306 416.674,212.397 415.312,213.233C413.95,214.069 412.008,214.575 409.948,214.633C399.026,214.936 390.352,217.525 383.905,222.38C376.517,227.943 371.025,235.041 367.288,243.646C363.387,252.628 360.903,262.745 359.815,273.995C358.708,285.433 358.154,296.779 358.154,308.032C358.154,308.032 358.154,355.357 358.154,355.357C358.154,355.362 358.154,355.368 358.154,355.374C357.965,378.104 352.619,398.037 342.201,415.179C332.644,430.905 318.275,443.235 299.27,452.232C318.285,461.062 332.655,473.307 342.21,489.03C352.625,506.167 357.965,525.999 358.154,548.533C358.154,548.539 358.154,548.544 358.154,548.55L358.154,595.596C358.154,606.989 359.073,618.336 360.91,629.637C362.727,640.808 365.85,650.89 370.3,659.881C374.61,668.588 380.275,675.768 387.4,681.398C393.478,686.2 401.027,688.869 410.332,689.169C412.32,689.233 414.159,689.718 415.438,690.515C416.717,691.312 417.328,692.355 417.135,693.41L411.289,725.424ZM397.209,720.715L401.636,696.471C391.187,695.131 382.248,691.65 374.972,685.9C367.064,679.652 360.666,671.707 355.882,662.042C351.238,652.66 347.959,642.142 346.064,630.486C344.19,618.96 343.253,607.387 343.253,595.767L343.253,548.731C343.07,527.099 338.017,508.054 328.018,491.602C318.332,475.664 303.396,463.602 282.968,455.501C281.117,454.767 280.041,453.608 280.061,452.369C280.082,451.13 281.196,449.956 283.071,449.196C303.459,440.935 318.361,428.809 328.028,412.902C338.023,396.455 343.07,377.326 343.253,355.518C343.253,355.518 343.253,308.204 343.253,308.204C343.253,296.816 343.813,285.335 344.933,273.76C346.071,261.998 348.691,251.422 352.77,242.031C357.013,232.263 363.398,224.237 371.785,217.922C379.502,212.112 389.442,208.562 401.593,207.26C401.593,207.26 397.166,183.017 397.166,183.017C388.578,183.762 380.734,185.429 373.642,188.031C364.291,191.463 356.043,196.111 348.836,201.945C341.358,207.998 335.01,215.035 329.758,223.046C324.395,231.227 319.99,240 316.536,249.362C313.06,258.785 310.499,268.481 308.853,278.453C307.202,288.45 306.376,298.31 306.376,308.032C306.376,308.032 306.376,355.357 306.376,355.357C306.376,383.187 299.476,403.265 286.329,415.645C273.427,427.793 254.324,434.425 228.987,435.51C228.987,435.51 228.987,468.324 228.987,468.324C254.36,469.529 273.493,476.242 286.379,488.47C299.513,500.933 306.376,520.94 306.376,548.55C306.376,548.55 306.376,595.596 306.376,595.596C306.376,605.307 307.293,615.155 309.125,625.14C310.954,635.107 313.742,644.8 317.491,654.219C321.223,663.594 325.862,672.379 331.415,680.571C336.866,688.614 343.331,695.678 350.838,701.755C358.095,707.63 366.273,712.31 375.431,715.766C382.11,718.286 389.369,719.937 397.209,720.715L397.209,720.715Z" style="fill:rgb(25,209,181);"/>
                </g>
            </g>
            <g transform="matrix(0.969949,0.630972,-0.093822,0.969949,62.4202,-80.294)">
                <g transform="matrix(0.163044,-0.0143703,0.00525322,0.400841,-109.656,-193.643)">
                    <path d="M2155.28,1708.63C2091.15,1859.43 1950.56,1931.36 1807.76,2001.95C1639.62,2085.07 1498.11,2154.18 1381.55,2210.65C1306.06,2247.22 1241.05,2278.49 1186.05,2304.84C1194.92,2173.66 1227.65,1986.24 1335.9,1794.71C1382.88,1711.57 1456.05,1585.47 1603.71,1488.64C1642.54,1463.17 1692.08,1431.33 1755.16,1411.46C1786.29,1401.65 1820.71,1394.76 1858.77,1392.99C1953.84,1388.57 2123.37,1413.67 2171.22,1526.9C2201.19,1597.8 2170.56,1672.71 2155.28,1708.63Z" style="fill:rgb(255,76,123);fill-rule:nonzero;"/>
                </g>
                <g transform="matrix(0.482173,0,0,1.25042,-36.4526,-218.272)">
                    <path d="M663.211,374.55C660.022,370.729 624.769,329.784 576.737,336.002C543.846,340.261 522.881,364.312 512.141,376.636C494.359,397.037 486.545,418.229 482.971,430.812C479.958,435.274 477.009,439.716 474.115,444.139C484.288,440.934 495.538,438.681 507.974,438.104C539.038,436.659 594.439,444.864 610.077,481.861C619.868,505.03 609.856,529.511 604.865,541.248C583.91,590.527 537.968,614.03 491.304,637.098C436.359,664.258 390.118,686.841 352.029,705.296C350.314,711.095 348.705,716.742 347.195,722.232C343.756,734.729 292.525,924.037 329.817,940.277C343.647,946.3 364.516,926.28 378.452,912.912C445.884,848.226 447.516,751.271 446.442,716.764C467.872,714.508 505.715,707.495 543.397,681.899C551.231,676.575 581.856,655.428 613.202,601.675C632.439,568.688 662.67,505.806 669.461,414.143C690.644,396.431 711.83,388.719 733.016,371.008C709.747,375.521 693.227,381.787 663.211,374.55ZM617.44,398.491C617.44,398.491 613.072,401.346 602.464,402.663C584.07,404.949 568.41,404.909 568.41,404.909C568.41,404.909 582.913,407.495 597.681,406.836C612.448,406.178 617.44,398.491 617.44,398.491ZM606.17,397.681C599.695,397.681 594.449,392.431 594.449,385.96C594.449,379.486 599.695,374.239 606.17,374.239C612.641,374.239 617.891,379.486 617.891,385.96C617.891,392.431 612.641,397.681 606.17,397.681ZM625.389,375.074C625.389,375.074 616.414,369.518 594.619,366.954C556.824,362.508 536.188,368.664 536.188,368.664C536.188,368.664 554.448,357.552 584.79,358.835C615.132,360.117 625.389,375.074 625.389,375.074Z" style="fill:rgb(255,76,123);"/>
                </g>
            </g>
            <g transform="matrix(0.428963,0,0,1.17788,-1377.05,838.73)">
                <g>
                    <path d="M4391.16,-354.078L4504.98,-608.961L4650.01,-608.961L4469.82,-256.422L4654.41,101.976L4510.26,101.976L4392.91,-156.813L4276.01,101.976L4130.1,101.976L4314.69,-256.422L4134.94,-608.961L4279.09,-608.961L4391.16,-354.078Z" style="fill:rgb(255,76,123);fill-rule:nonzero;"/>
                    <path d="M5046.87,-83.571C5046.87,-96.266 5044.89,-108.147 5040.94,-119.215C5036.98,-130.283 5030.24,-140.618 5020.72,-150.221C5011.2,-159.824 4998.74,-168.613 4983.36,-176.588C4967.98,-184.563 4948.86,-191.969 4926.01,-198.805C4898.18,-207.269 4871.59,-217.848 4846.24,-230.543C4820.9,-243.239 4798.56,-258.538 4779.22,-276.442C4759.88,-294.345 4744.43,-315.179 4732.86,-338.942C4721.28,-362.705 4715.5,-390.048 4715.5,-420.973C4715.5,-450.921 4721.21,-478.102 4732.64,-502.516C4744.06,-526.93 4759.88,-547.763 4780.1,-565.016C4800.32,-582.269 4824.19,-595.533 4851.74,-604.811C4879.28,-614.088 4909.16,-618.727 4941.39,-618.727C4974.79,-618.727 5005.34,-613.356 5033.02,-602.614C5060.71,-591.871 5084.52,-576.816 5104.44,-557.448C5124.36,-538.079 5139.89,-515.048 5151.03,-488.356C5162.16,-461.663 5167.73,-432.366 5167.73,-400.465L5047.31,-400.465C5046.72,-416.416 5044.16,-431.064 5039.62,-444.41C5035.07,-457.757 5028.34,-469.231 5019.4,-478.834C5010.46,-488.437 4999.33,-495.924 4986,-501.295C4972.67,-506.666 4957.07,-509.352 4939.19,-509.352C4922.79,-509.352 4908.21,-507.155 4895.47,-502.76C4882.72,-498.366 4871.95,-492.181 4863.16,-484.205C4854.37,-476.23 4847.71,-466.79 4843.17,-455.885C4838.62,-444.98 4836.35,-433.18 4836.35,-420.485C4836.35,-407.138 4839.36,-395.094 4845.36,-384.352C4851.37,-373.61 4860.09,-363.925 4871.51,-355.299C4882.94,-346.673 4896.78,-338.779 4913.04,-331.617C4929.31,-324.456 4947.69,-317.783 4968.2,-311.598C4997.5,-302.158 5024.45,-290.602 5049.07,-276.93C5073.68,-263.258 5094.85,-247.063 5112.57,-228.346C5130.3,-209.629 5144.07,-188.307 5153.88,-164.381C5163.7,-140.455 5168.61,-113.844 5168.61,-84.547C5168.61,-53.297 5162.97,-25.547 5151.69,-1.295C5140.4,22.956 5124.8,43.464 5104.88,60.228C5084.96,76.993 5061.22,89.688 5033.68,98.314C5006.14,106.94 4976.11,111.254 4943.59,111.254C4923.37,111.254 4903.23,109.219 4883.16,105.15C4863.09,101.081 4843.9,94.815 4825.59,86.351C4807.28,77.888 4790.21,67.308 4774.39,54.613C4758.57,41.918 4744.87,27.106 4733.3,10.179C4721.72,-6.748 4712.64,-25.953 4706.05,-47.438C4699.45,-68.922 4696.16,-92.685 4696.16,-118.727L4817.46,-118.727C4818.04,-97.242 4821.41,-78.851 4827.57,-63.551C4833.72,-48.252 4842.29,-35.719 4853.27,-25.953C4864.26,-16.188 4877.45,-9.026 4892.83,-4.469C4908.21,0.088 4925.13,2.367 4943.59,2.367C4960,2.367 4974.57,0.251 4987.32,-3.981C5000.06,-8.213 5010.83,-14.072 5019.62,-21.559C5028.41,-29.046 5035.15,-38.079 5039.84,-48.658C5044.52,-59.238 5046.87,-70.875 5046.87,-83.571Z" style="fill:rgb(174,254,208);fill-rule:nonzero;"/>
                    <path d="M5037.4,-83.571C5037.4,-72.018 5035.31,-61.423 5031.04,-51.796C5026.88,-42.4 5020.91,-34.367 5013.1,-27.718C5005.2,-20.985 4995.49,-15.75 4984.03,-11.945C4972.25,-8.032 4958.76,-6.125 4943.59,-6.125C4926.21,-6.125 4910.28,-8.243 4895.8,-12.533C4881.86,-16.663 4869.89,-23.136 4859.94,-31.986C4849.88,-40.925 4842.1,-52.43 4836.47,-66.433C4830.61,-80.989 4827.48,-98.496 4826.92,-118.935C4826.79,-123.542 4822.59,-127.219 4817.46,-127.219L4696.16,-127.219C4690.93,-127.219 4686.69,-123.417 4686.69,-118.727C4686.69,-91.861 4690.12,-67.348 4696.92,-45.184C4703.77,-22.881 4713.21,-2.952 4725.23,14.62C4737.29,32.269 4751.58,47.706 4768.08,60.943C4784.51,74.127 4802.23,85.111 4821.25,93.901C4840.28,102.695 4860.22,109.206 4881.07,113.433C4901.84,117.643 4922.68,119.746 4943.59,119.746C4977.24,119.746 5008.31,115.257 5036.8,106.332C5065.65,97.297 5090.49,83.98 5111.35,66.423C5132.23,48.858 5148.6,27.385 5160.42,1.975C5172.14,-23.232 5178.07,-52.066 5178.07,-84.547C5178.07,-114.923 5172.94,-142.508 5162.77,-167.314C5152.56,-192.202 5138.22,-214.375 5119.78,-233.845C5101.43,-253.222 5079.53,-269.996 5054.05,-284.15C5028.89,-298.124 5001.35,-309.942 4971.4,-319.59C4971.34,-319.61 4971.28,-319.629 4971.22,-319.648C4951.14,-325.703 4933.14,-332.23 4917.22,-339.241C4901.71,-346.068 4888.5,-353.573 4877.61,-361.797C4867.23,-369.632 4859.28,-378.403 4853.82,-388.16C4848.45,-397.767 4845.82,-408.549 4845.82,-420.485C4845.82,-432.113 4847.87,-442.925 4852.03,-452.913C4856.09,-462.66 4862.04,-471.106 4869.89,-478.234C4877.77,-485.381 4887.44,-490.895 4898.86,-494.833C4910.61,-498.885 4924.06,-500.86 4939.19,-500.86C4955.58,-500.86 4969.9,-498.473 4982.12,-493.548C4994.1,-488.724 5004.11,-482.016 5012.14,-473.392C5020.3,-464.62 5026.42,-454.122 5030.56,-441.931C5034.88,-429.253 5037.29,-415.336 5037.85,-400.185C5038.02,-395.607 5042.2,-391.973 5047.31,-391.973L5167.73,-391.973C5172.95,-391.973 5177.19,-395.775 5177.19,-400.465C5177.19,-433.448 5171.4,-463.734 5159.89,-491.332C5148.31,-519.105 5132.12,-543.055 5111.4,-563.207C5090.58,-583.445 5065.71,-599.184 5036.78,-610.408C5007.96,-621.592 4976.16,-627.219 4941.39,-627.219C4907.97,-627.219 4876.97,-622.383 4848.41,-612.761C4819.64,-603.068 4794.7,-589.194 4773.58,-571.169C4752.43,-553.122 4735.86,-531.342 4723.91,-505.804C4712.02,-480.403 4706.03,-452.131 4706.03,-420.973C4706.03,-388.762 4712.13,-360.293 4724.18,-335.541C4736.22,-310.822 4752.31,-289.156 4772.42,-270.532C4792.39,-252.044 4815.46,-236.238 4841.63,-223.128C4867.47,-210.182 4894.59,-199.393 4922.97,-190.762C4922.99,-190.758 4923,-190.753 4923.02,-190.749C4945.17,-184.122 4963.72,-176.967 4978.63,-169.235C4993.03,-161.766 5004.73,-153.57 5013.65,-144.576C5022.24,-135.913 5028.35,-126.607 5031.92,-116.622C5035.59,-106.36 5037.4,-95.341 5037.4,-83.571ZM5056.33,-83.571C5056.33,-97.19 5054.19,-109.934 5049.95,-121.808C5045.61,-133.958 5038.24,-145.324 5027.79,-155.866C5017.66,-166.077 5004.45,-175.46 4988.1,-183.941C4972.25,-192.157 4952.57,-199.811 4929.03,-206.854C4901.75,-215.149 4875.69,-225.517 4850.86,-237.958C4826.34,-250.239 4804.72,-265.032 4786.02,-282.352C4767.46,-299.535 4752.64,-319.535 4741.53,-342.342C4730.44,-365.117 4724.96,-391.335 4724.96,-420.973C4724.96,-449.71 4730.4,-475.801 4741.36,-499.228C4752.26,-522.518 4767.34,-542.404 4786.62,-558.863C4805.93,-575.343 4828.76,-587.998 4855.06,-596.86C4881.58,-605.793 4910.36,-610.235 4941.39,-610.235C4973.42,-610.235 5002.72,-605.12 5029.27,-594.819C5055.71,-584.559 5078.46,-570.187 5097.48,-551.688C5116.6,-533.103 5131.48,-510.992 5142.16,-485.379C5151.92,-461.979 5157.23,-436.502 5158.12,-408.957C5158.12,-408.957 5056.29,-408.957 5056.29,-408.957C5055.2,-422.554 5052.65,-435.197 5048.67,-446.89C5043.73,-461.392 5036.38,-473.843 5026.66,-484.277C5016.82,-494.858 5004.57,-503.124 4989.88,-509.042C4975.44,-514.86 4958.55,-517.844 4939.19,-517.844C4921.51,-517.844 4905.81,-515.424 4892.07,-510.687C4878,-505.836 4866.14,-498.98 4856.43,-490.177C4846.71,-481.355 4839.32,-470.92 4834.3,-458.857C4829.38,-447.036 4826.89,-434.247 4826.89,-420.485C4826.89,-405.728 4830.26,-392.421 4836.9,-380.544C4843.46,-368.816 4852.94,-358.219 4865.42,-348.801C4877.38,-339.772 4891.85,-331.49 4908.87,-323.994C4925.45,-316.693 4944.19,-309.884 4965.09,-303.577C4993.71,-294.351 5020.04,-283.066 5044.08,-269.71C5067.83,-256.52 5088.26,-240.905 5105.36,-222.847C5122.37,-204.882 5135.58,-184.412 5145,-161.448C5154.45,-138.403 5159.14,-112.765 5159.14,-84.547C5159.14,-54.529 5153.79,-27.861 5142.95,-4.566C5132.21,18.527 5117.38,38.07 5098.4,54.034C5079.43,70.005 5056.8,82.078 5030.56,90.296C5003.98,98.624 4974.98,102.761 4943.59,102.761C4924.07,102.761 4904.62,100.795 4885.25,96.867C4865.96,92.957 4847.52,86.935 4829.92,78.802C4812.32,70.664 4795.91,60.489 4780.7,48.283C4765.55,36.129 4752.44,21.944 4741.36,5.739C4730.23,-10.544 4721.51,-29.026 4715.17,-49.692C4709.51,-68.137 4706.38,-88.32 4705.74,-110.235C4705.74,-110.235 4808.36,-110.235 4808.36,-110.235C4809.55,-91.228 4813.02,-74.71 4818.66,-60.669C4825.34,-44.073 4834.69,-30.513 4846.61,-19.92C4858.63,-9.24 4873.04,-1.389 4889.86,3.595C4906.14,8.419 4924.05,10.859 4943.59,10.859C4961.23,10.859 4976.9,8.534 4990.6,3.984C5004.63,-0.675 5016.46,-7.159 5026.14,-15.4C5035.91,-23.725 5043.42,-33.758 5048.63,-45.521C5053.74,-57.053 5056.33,-69.732 5056.33,-83.571Z" style="fill:rgb(25,209,181);"/>
                    <path d="M5701.26,-201.246C5701.26,-155.673 5695.84,-113.681 5685,-75.27C5674.16,-36.858 5658.48,-3.818 5637.98,23.851C5617.47,51.521 5592.49,73.086 5563.04,88.549C5533.6,104.011 5500.42,111.742 5463.5,111.742C5426.58,111.742 5393.77,104.011 5365.06,88.549C5336.34,73.086 5312.17,51.439 5292.54,23.607C5272.91,-4.225 5257.97,-37.265 5247.71,-75.514C5237.46,-113.763 5232.33,-155.673 5232.33,-201.246L5232.33,-304.762C5232.33,-350.335 5237.46,-392.327 5247.71,-430.739C5257.97,-469.15 5272.91,-502.272 5292.54,-530.104C5312.17,-557.936 5336.27,-579.664 5364.84,-595.289C5393.4,-610.914 5426.14,-618.727 5463.06,-618.727C5500.27,-618.727 5533.6,-610.914 5563.04,-595.289C5592.49,-579.664 5617.47,-557.936 5637.98,-530.104C5658.48,-502.272 5674.16,-469.15 5685,-430.739C5695.84,-392.327 5701.26,-350.335 5701.26,-304.762L5701.26,-201.246ZM5576.01,-305.739C5576.01,-334.71 5573.88,-361.403 5569.64,-385.817C5565.39,-410.231 5558.72,-431.227 5549.64,-448.805C5540.56,-466.383 5528.91,-480.136 5514.7,-490.065C5500.49,-499.993 5483.28,-504.957 5463.06,-504.957C5443.14,-504.957 5426.44,-499.993 5412.96,-490.065C5399.48,-480.136 5388.64,-466.383 5380.44,-448.805C5372.23,-431.227 5366.37,-410.231 5362.86,-385.817C5359.34,-361.403 5357.58,-334.71 5357.58,-305.739L5357.58,-201.246C5357.58,-172.601 5359.34,-146.071 5362.86,-121.657C5366.37,-97.242 5372.23,-76.084 5380.44,-58.18C5388.64,-40.276 5399.48,-26.279 5412.96,-16.188C5426.44,-6.097 5443.28,-1.051 5463.5,-1.051C5483.42,-1.051 5500.49,-6.097 5514.7,-16.188C5528.91,-26.279 5540.48,-40.195 5549.42,-57.936C5558.36,-75.677 5565.02,-96.754 5569.42,-121.168C5573.81,-145.582 5576.01,-172.275 5576.01,-201.246L5576.01,-305.739Z" style="fill:rgb(174,254,208);fill-rule:nonzero;"/>
                    <path d="M5710.73,-201.246L5710.73,-304.762C5710.73,-351.09 5705.2,-393.775 5694.18,-432.823C5683.05,-472.246 5666.92,-506.223 5645.87,-534.787C5624.53,-563.752 5598.51,-586.338 5567.86,-602.599C5536.99,-618.979 5502.07,-627.219 5463.06,-627.219C5424.28,-627.219 5389.91,-618.952 5359.91,-602.54C5330.14,-586.259 5305,-563.647 5284.54,-534.645C5264.4,-506.091 5249.03,-472.125 5238.51,-432.717C5228.09,-393.702 5222.87,-351.051 5222.87,-304.762L5222.87,-201.246C5222.87,-154.953 5228.09,-112.381 5238.51,-73.528C5249.03,-34.287 5264.4,-0.405 5284.54,28.148C5305.01,57.168 5330.25,79.708 5360.18,95.83C5390.32,112.06 5424.75,120.234 5463.5,120.234C5502.19,120.234 5536.96,112.085 5567.82,95.878C5598.48,79.782 5624.51,57.358 5645.86,28.554C5666.91,0.149 5683.05,-33.753 5694.18,-73.185C5705.2,-112.233 5710.73,-154.919 5710.73,-201.246ZM5691.8,-201.246C5691.8,-156.428 5686.49,-115.13 5675.82,-77.354C5665.27,-39.964 5650.06,-7.785 5630.09,19.149C5610.43,45.683 5586.5,66.391 5558.26,81.219C5530.23,95.937 5498.64,103.25 5463.5,103.25C5428.42,103.25 5397.21,95.962 5369.93,81.267C5342.44,66.465 5319.33,45.711 5300.54,19.066C5281.42,-8.044 5266.9,-40.243 5256.91,-77.5C5246.82,-115.144 5241.8,-156.394 5241.8,-201.246C5241.8,-201.246 5241.8,-304.762 5241.8,-304.762C5241.8,-349.619 5246.82,-390.953 5256.92,-428.76C5266.9,-466.175 5281.42,-498.453 5300.54,-525.563C5319.34,-552.225 5342.4,-573.07 5369.76,-588.038C5396.89,-602.877 5428,-610.235 5463.06,-610.235C5498.47,-610.235 5530.2,-602.85 5558.23,-587.98C5586.47,-572.991 5610.4,-552.12 5630.08,-525.42C5650.05,-498.321 5665.27,-466.054 5675.82,-428.654C5686.49,-390.879 5691.8,-349.58 5691.8,-304.762L5691.8,-201.246ZM5585.47,-305.739C5585.47,-335.184 5583.31,-362.313 5578.99,-387.127C5574.59,-412.422 5567.64,-434.164 5558.23,-452.377C5548.44,-471.31 5535.82,-486.071 5520.52,-496.765C5504.69,-507.819 5485.57,-513.449 5463.06,-513.449C5440.73,-513.449 5422.06,-507.756 5406.95,-496.628C5392.38,-485.896 5380.57,-471.087 5371.71,-452.085C5363.22,-433.893 5357.11,-412.172 5353.47,-386.905C5349.91,-362.159 5348.12,-335.104 5348.12,-305.739L5348.12,-201.246C5348.12,-172.209 5349.91,-145.316 5353.47,-120.568C5357.11,-95.328 5363.2,-73.461 5371.68,-54.951C5380.54,-35.619 5392.34,-20.564 5406.9,-9.668C5422,1.645 5440.84,7.441 5463.5,7.441C5485.72,7.441 5504.73,1.726 5520.57,-9.529C5535.88,-20.397 5548.42,-35.332 5558.04,-54.438C5567.28,-72.783 5574.22,-94.569 5578.76,-119.814C5583.23,-144.641 5585.47,-171.785 5585.47,-201.246L5585.47,-305.739ZM5566.54,-305.739L5566.54,-201.246C5566.54,-172.765 5564.39,-146.523 5560.07,-122.522C5555.83,-98.94 5549.43,-78.57 5540.79,-61.433C5532.55,-45.058 5521.94,-32.161 5508.83,-22.847C5496.26,-13.92 5481.12,-9.543 5463.5,-9.543C5445.73,-9.543 5430.87,-13.838 5419.02,-22.708C5406.62,-31.994 5396.74,-44.934 5389.19,-61.409C5381.27,-78.707 5375.64,-99.157 5372.24,-122.745C5368.78,-146.825 5367.05,-172.992 5367.05,-201.246C5367.05,-201.246 5367.05,-305.739 5367.05,-305.739C5367.05,-334.316 5368.78,-360.646 5372.24,-384.728C5375.64,-408.289 5381.25,-428.561 5389.17,-445.525C5396.71,-461.68 5406.58,-474.377 5418.97,-483.501C5430.81,-492.23 5445.54,-496.465 5463.06,-496.465C5480.98,-496.465 5496.28,-492.168 5508.89,-483.364C5522,-474.202 5532.67,-461.456 5541.05,-445.233C5549.81,-428.289 5556.19,-408.04 5560.28,-384.507C5564.46,-360.492 5566.54,-334.236 5566.54,-305.739Z" style="fill:rgb(25,209,181);"/>
                </g>
            </g>
        </g>
    </g>
    <defs>
        <radialGradient id="_Radial2" cx="0" cy="0" r="1" gradientUnits="userSpaceOnUse" gradientTransform="matrix(293.488,0,7.85503e-30,293.488,539.808,539.457)"><stop offset="0" style="stop-color:rgb(0,255,216);stop-opacity:1"/><stop offset="0.7" style="stop-color:rgb(0,220,186);stop-opacity:0.65"/><stop offset="1" style="stop-color:rgb(0,153,130);stop-opacity:0"/></radialGradient>
        <radialGradient id="_Radial3" cx="0" cy="0" r="1" gradientUnits="userSpaceOnUse" gradientTransform="matrix(387.252,-103.764,103.764,387.252,539.594,539.742)"><stop offset="0" style="stop-color:rgb(0,255,216);stop-opacity:1"/><stop offset="0.7" style="stop-color:rgb(0,220,186);stop-opacity:0.65"/><stop offset="1" style="stop-color:rgb(0,153,130);stop-opacity:0"/></radialGradient>
        <radialGradient id="_Radial4" cx="0" cy="0" r="1" gradientUnits="userSpaceOnUse" gradientTransform="matrix(347.2,-200.456,200.456,347.2,539.549,539.902)"><stop offset="0" style="stop-color:rgb(0,255,216);stop-opacity:1"/><stop offset="0.7" style="stop-color:rgb(0,220,186);stop-opacity:0.65"/><stop offset="1" style="stop-color:rgb(0,153,130);stop-opacity:0"/></radialGradient>
    </defs>
</svg>
