<?xml version="1.0" encoding="UTF-8" standalone="no"?>
<!DOCTYPE svg PUBLIC "-//W3C//DTD SVG 1.1//EN" "http://www.w3.org/Graphics/SVG/1.1/DTD/svg11.dtd">
<svg width="100%" height="100%" viewBox="0 0 800 800" version="1.1" xmlns="http://www.w3.org/2000/svg" xmlns:xlink="http://www.w3.org/1999/xlink" xml:space="preserve" xmlns:serif="http://www.serif.com/" style="fill-rule:evenodd;clip-rule:evenodd;stroke-linejoin:round;stroke-miterlimit:2;">
    <g opacity="0.99">
        <path d="M674.026,345.095L674.526,345.095C678.693,345.095 682.692,343.428 685.524,340.596C690.19,335.93 799.667,226.287 799.667,124.308C799.666,55.821 743.512,0 674.526,0C605.541,0 549.385,55.821 549.385,124.307C549.385,199.458 608.873,278.775 642.033,317.099C622.204,321.766 608.54,331.429 605.041,344.761C602.541,354.092 605.208,366.923 620.038,374.754C640.366,385.419 644.532,392.918 644.365,394.583C643.366,409.413 574.713,433.908 537.888,447.072C469.902,471.4 411.414,492.23 408.247,528.222C405.915,555.384 436.909,572.713 447.072,578.379C463.069,587.377 481.565,601.042 479.066,615.539C469.902,669.86 268.777,732.347 169.964,757.842C203.79,716.183 250.948,646.032 250.948,579.046C250.948,510.56 194.792,454.739 125.641,454.739C56.488,454.739 0.334,510.728 0.334,579.213C0.334,673.861 94.815,775.172 111.978,792.836C114.478,796.835 118.477,799.502 123.143,800.002L123.81,800.002C124.143,800.002 124.81,800.002 125.31,799.834L125.642,799.834C125.81,799.834 126.142,799.667 126.31,799.667C163.469,795.835 478.736,718.351 508.23,628.036C514.728,608.04 512.062,578.546 462.572,550.719C439.41,537.722 439.744,530.723 439.744,530.723C441.077,514.894 511.062,489.899 548.554,476.402C618.207,451.574 673.195,431.911 675.695,396.751C677.362,373.923 654.699,358.092 640.702,350.094C646.698,347.427 657.363,344.428 674.026,345.095ZM125.641,761.174C98.647,731.68 31.828,650.53 31.828,579.212C31.828,528.055 73.986,486.231 125.641,486.231C177.296,486.231 219.454,527.89 219.454,579.045C219.454,650.364 152.635,731.514 125.641,761.174Z" style="fill:rgb(255,76,123);fill-rule:nonzero;"/>
    </g>
</svg>
