<?xml version="1.0" encoding="UTF-8" standalone="no"?>
<!DOCTYPE svg PUBLIC "-//W3C//DTD SVG 1.1//EN" "http://www.w3.org/Graphics/SVG/1.1/DTD/svg11.dtd">
<svg width="100%" height="100%" viewBox="0 0 800 800" version="1.1" xmlns="http://www.w3.org/2000/svg" xmlns:xlink="http://www.w3.org/1999/xlink" xml:space="preserve" xmlns:serif="http://www.serif.com/" style="fill-rule:evenodd;clip-rule:evenodd;stroke-linejoin:round;stroke-miterlimit:2;">
    <g id="action">
        <g>
            <path d="M56.667,790L10,743.333L90,663.333C10,570 16.667,430 103.333,343.333L160,286.667L516.667,643.333L463.333,696.667C416.667,743.333 356.667,766.667 293.333,766.667C236.667,766.667 183.333,746.667 140,710L56.667,790ZM640,510L556.667,426.667L480,503.333L433.333,460L510,383.333L416.667,290L340,366.667L293.333,320L370,243.333L286.667,160L340,106.667C386.667,60 446.667,36.667 510,36.667C566.667,36.667 620,56.667 663.333,93.333L743.333,13.333L790,60L710,140C790,233.333 783.333,373.333 696.667,460L640,510ZM380,153.333L640,416.667L650,406.667C716.667,340 716.667,233.333 650,166.667L633.333,146.667C600,113.333 556.667,96.667 510,96.667C463.333,96.667 420,113.333 386.667,146.667L380,153.333Z" style="fill:rgb(255,76,123);fill-rule:nonzero;"/>
        </g>
    </g>
</svg>
